<svg xmlns="http://www.w3.org/2000/svg" width="235.55" height="229.995" viewBox="0 0 235.55 229.995">
  <g id="rain-weather-svgrepo-com" transform="translate(0 -6.036)">
    <path id="Path_1" data-name="Path 1" d="M318.641,148.59A46.266,46.266,0,1,1,362,86.15a6.73,6.73,0,1,1-12.61,4.705,32.81,32.81,0,1,0-30.748,44.275,6.73,6.73,0,1,1,0,13.46Z" transform="translate(-147.067 -27.009)" fill="#2d527c"/>
    <path id="Path_2" data-name="Path 2" d="M213.45,103.427A39.535,39.535,0,1,1,159.314,49.2a68.365,68.365,0,0,0-122.306,54.59,37.142,37.142,0,0,0-22.38,33.975h0a37.124,37.124,0,0,0,37.015,37.015H199.7a37.124,37.124,0,0,0,37.015-37.015h0A37.14,37.14,0,0,0,213.45,103.427Z" transform="translate(-7.898 -7.898)" fill="#cee8fa"/>
    <g id="Group_20" data-name="Group 20" transform="translate(0 6.036)">
      <path id="Path_3" data-name="Path 3" d="M191.805,173.616H43.745A43.723,43.723,0,0,1,21.589,92.187a75.084,75.084,0,0,1,135.294-54.8,6.731,6.731,0,0,1-2.03,9.71,32.805,32.805,0,1,0,44.918,44.991,6.728,6.728,0,0,1,8.3-2.795,43.729,43.729,0,0,1-16.264,84.327ZM95.854,19.5A61.661,61.661,0,0,0,35.683,94.448a6.731,6.731,0,0,1-3.892,7.621,30.271,30.271,0,0,0,11.954,58.087h148.06a30.264,30.264,0,0,0,15.936-56.005,46.255,46.255,0,1,1-66.014-64.169A61.827,61.827,0,0,0,95.854,19.5Z" transform="translate(0 -6.036)" fill="#2d527c"/>
      <path id="Path_4" data-name="Path 4" d="M85,450.382a51.817,51.817,0,0,1-8.356-.634,6.729,6.729,0,0,1-5.455-5.455c-.385-2.181-3.442-21.633,7.779-32.854,6.954-6.954,17.161-8.414,24.5-8.414a51.814,51.814,0,0,1,8.356.634,6.729,6.729,0,0,1,5.455,5.455c.385,2.181,3.443,21.633-7.779,32.855C102.544,448.922,92.337,450.382,85,450.382Zm-.989-13.471q.48.011.989.012c3.926,0,11.092-.581,14.982-4.471,3.8-3.8,4.577-10.832,4.474-15.956-.32-.007-.65-.011-.989-.011-3.926,0-11.092.581-14.982,4.471C84.688,424.75,83.908,431.786,84.009,436.911Z" transform="translate(-38.077 -220.386)" fill="#2d527c"/>
      <path id="Path_5" data-name="Path 5" d="M218.938,450.382a51.824,51.824,0,0,1-8.356-.634,6.729,6.729,0,0,1-5.455-5.455c-.385-2.181-3.442-21.633,7.779-32.854,6.954-6.954,17.162-8.414,24.5-8.414a51.819,51.819,0,0,1,8.356.634,6.729,6.729,0,0,1,5.455,5.455c.385,2.181,3.442,21.633-7.779,32.854C236.483,448.922,226.276,450.382,218.938,450.382Zm-.989-13.471q.48.011.989.012c3.926,0,11.092-.581,14.982-4.471,3.8-3.8,4.576-10.832,4.474-15.956q-.48-.011-.989-.011c-3.926,0-11.092.581-14.982,4.471C218.627,424.75,217.847,431.786,217.948,436.911Z" transform="translate(-110.396 -220.386)" fill="#2d527c"/>
      <path id="Path_6" data-name="Path 6" d="M352.879,450.382a51.817,51.817,0,0,1-8.356-.634,6.729,6.729,0,0,1-5.455-5.455c-.385-2.181-3.443-21.633,7.779-32.855,6.953-6.954,17.161-8.413,24.5-8.413a51.827,51.827,0,0,1,8.356.634,6.728,6.728,0,0,1,5.455,5.455c.385,2.181,3.442,21.633-7.779,32.854C370.425,448.922,360.217,450.382,352.879,450.382Zm-.99-13.471c.32.007.65.012.989.012,3.926,0,11.091-.581,14.982-4.471,3.8-3.8,4.576-10.832,4.474-15.956q-.48-.011-.989-.011c-3.926,0-11.091.581-14.982,4.471C352.567,424.75,351.788,431.786,351.89,436.911Z" transform="translate(-182.717 -220.386)" fill="#2d527c"/>
    </g>
  </g>
</svg>
