<svg xmlns="http://www.w3.org/2000/svg" width="229.995" height="229.995" viewBox="0 0 229.995 229.995">
  <g id="XMLID_1124_" transform="translate(-0.001)">
    <path id="XMLID_1125_" d="M97.911,228.725,228.726,97.91c.027.18.057.365.085.546A115,115,0,1,0,98.87,228.868Z" fill="#1d54bd"/>
    <path id="XMLID_1126_" d="M99.186,230,147.5,278.318A115,115,0,0,0,278.318,147.5L230,99.186Z" transform="translate(-49.592 -49.593)" fill="#071e61"/>
    <path id="XMLID_1127_" d="M111.337,52.5A92.329,92.329,0,0,0,76.923,71.344S60.652,89.753,60.649,89.75a92.591,92.591,0,0,0-3.077,98.088s51.93,41.593,51.93,41.6a92.432,92.432,0,0,0,28,4.315V65.928Z" transform="translate(-22.5 -26.251)" fill="#7be3ff"/>
    <path id="XMLID_1128_" d="M318.243,169.066,288.628,69.7a92.27,92.27,0,0,0-32.463-17.2S243.321,65.928,230,65.928V233.751a92.2,92.2,0,0,0,37.944-8.113s30.04-21.658,30.043-21.656A92.351,92.351,0,0,0,318.243,169.066Z" transform="translate(-115 -26.25)" fill="#48d9ff"/>
    <path id="XMLID_1129_" d="M230,48.751a26.43,26.43,0,0,1-52.325,0,93.1,93.1,0,0,1,52.325,0Z" transform="translate(-88.837 -22.5)" fill="#fff"/>
    <rect id="XMLID_1130_" width="10" height="12.5" transform="translate(125.001 70.361)" fill="#487ed2"/>
    <path id="XMLID_1131_" d="M88.255,173.775a20.148,20.148,0,0,0-3.3.272V163.675h10v-13.2h13.911v10h10v-10h.059V111.022a10.753,10.753,0,0,0-3.729-20.837s-18.469,0-27.614,0A92.878,92.878,0,0,0,66.3,116.971v38.053a8.647,8.647,0,0,0,8.646,8.65v15.16A19.973,19.973,0,0,0,68.223,193.8v12.878a92.74,92.74,0,0,0,51.931,41.594V218.632h2.212a13.6,13.6,0,0,0,10.786-13.3v-31.56Z" transform="translate(-33.152 -45.092)" fill="#73a7e6"/>
    <path id="XMLID_1132_" d="M288.63,86.907l.142,11.327H270.091v10h9.368v8.532H268.034A10.009,10.009,0,0,0,260,126.273v10.042H240V159.4h8.438a13.067,13.067,0,0,0,12.659-9.822h15.769a18.057,18.057,0,0,0,16.491,10.712v8.639H246.192A16.188,16.188,0,0,0,230,185.113v10A16.194,16.194,0,0,0,246.192,211.3h3.066v25.12a23.294,23.294,0,0,0,3.157,11.79,92.432,92.432,0,0,0,45.569-27.04v-34.9h20.259A92.615,92.615,0,0,0,288.63,86.907Z" transform="translate(-115 -43.453)" fill="#487ed2"/>
  </g>
</svg>
